<svg xmlns="http://www.w3.org/2000/svg" version="1.1" xmlns:xlink="http://www.w3.org/1999/xlink" xmlns:svgjs="http://svgjs.com/svgjs" width="1440" height="560" preserveAspectRatio="none" viewBox="0 0 1440 560"><g mask="url(&quot;#SvgjsMask1005&quot;)" fill="none"><rect width="1440" height="560" x="0" y="0" fill="url(#SvgjsLinearGradient1006)"></rect><path d="M1440 0L806.56 0L1440 275.37z" fill="rgba(255, 255, 255, .1)"></path><path d="M806.56 0L1440 275.37L1440 313.85L368.73999999999995 0z" fill="rgba(255, 255, 255, .075)"></path><path d="M368.74 0L1440 313.85L1440 435.35L263.22 0z" fill="rgba(255, 255, 255, .05)"></path><path d="M263.22 0L1440 435.35L1440 492.27000000000004L242.31000000000003 0z" fill="rgba(255, 255, 255, .025)"></path><path d="M0 560L233.12 560L0 493.72z" fill="rgba(0, 0, 0, .1)"></path><path d="M0 493.72L233.12 560L523.1700000000001 560L0 418.88z" fill="rgba(0, 0, 0, .075)"></path><path d="M0 418.88L523.1700000000001 560L766.0200000000001 560L0 330.44z" fill="rgba(0, 0, 0, .05)"></path><path d="M0 330.44L766.0200000000001 560L778.94 560L0 237.03z" fill="rgba(0, 0, 0, .025)"></path></g><defs><mask id="SvgjsMask1005"><rect width="1440" height="560" fill="#ffffff"></rect></mask><linearGradient x1="15.28%" y1="-39.29%" x2="84.72%" y2="139.29%" gradientUnits="userSpaceOnUse" id="SvgjsLinearGradient1006"><stop stop-color="#0e2a47" offset="0"></stop><stop stop-color="#00459e" offset="1"></stop></linearGradient></defs></svg>